<svg xmlns="http://www.w3.org/2000/svg" width="64" height="64" shape-rendering="crispEdges">
  <rect width="64" height="64" fill="#0e2d1d"/>
  <!-- darker noise -->
  <g fill="#0b2317">
    <rect x="4" y="6" width="2" height="2"/>
    <rect x="14" y="10" width="2" height="2"/>
    <rect x="22" y="4" width="2" height="2"/>
    <rect x="34" y="8" width="2" height="2"/>
    <rect x="50" y="14" width="2" height="2"/>
    <rect x="8" y="30" width="2" height="2"/>
    <rect x="26" y="22" width="2" height="2"/>
    <rect x="40" y="28" width="2" height="2"/>
    <rect x="58" y="26" width="2" height="2"/>
    <rect x="16" y="44" width="2" height="2"/>
    <rect x="30" y="40" width="2" height="2"/>
    <rect x="44" y="46" width="2" height="2"/>
    <rect x="54" y="40" width="2" height="2"/>
    <rect x="6" y="54" width="2" height="2"/>
    <rect x="22" y="58" width="2" height="2"/>
    <rect x="36" y="56" width="2" height="2"/>
    <rect x="52" y="60" width="2" height="2"/>
  </g>
  <!-- light blades -->
  <g fill="#1f6a3c">
    <rect x="2" y="2" width="1" height="2"/>
    <rect x="5" y="14" width="1" height="2"/>
    <rect x="11" y="20" width="1" height="2"/>
    <rect x="20" y="12" width="1" height="2"/>
    <rect x="27" y="6" width="1" height="2"/>
    <rect x="38" y="14" width="1" height="2"/>
    <rect x="45" y="6" width="1" height="2"/>
    <rect x="56" y="10" width="1" height="2"/>
    <rect x="8" y="36" width="1" height="2"/>
    <rect x="22" y="30" width="1" height="2"/>
    <rect x="30" y="26" width="1" height="2"/>
    <rect x="42" y="36" width="1" height="2"/>
    <rect x="50" y="30" width="1" height="2"/>
    <rect x="58" y="34" width="1" height="2"/>
    <rect x="12" y="52" width="1" height="2"/>
    <rect x="28" y="50" width="1" height="2"/>
    <rect x="34" y="46" width="1" height="2"/>
    <rect x="48" y="54" width="1" height="2"/>
  </g>
  <!-- edge vignette look -->
  <rect x="0" y="0" width="64" height="64" fill="none" stroke="#06160e" stroke-width="2"/>
</svg>