<svg xmlns="http://www.w3.org/2000/svg" width="128" height="32" viewBox="0 0 128 32">
  <defs>
    <g id="char">
      <rect x="13" y="18" width="4" height="9" fill="C_PANTS" />
      <rect x="19" y="18" width="4" height="9" fill="C_PANTS" />
      <rect x="10" y="9" width="12" height="9" fill="C_CLOTH" />
      <rect x="10" y="13" width="12" height="1" fill="C_LEATHER" />
      <rect x="10" y="9" width="12" height="9" fill="none" stroke="C_OUTLINE" />
      <rect x="9" y="12" width="2" height="4" fill="C_CLOTH" />
      <rect x="21" y="12" width="2" height="4" fill="C_CLOTH" />
      <rect x="14" y="4" width="4" height="5" fill="C_SKIN" stroke="C_OUTLINE" />
      <rect x="13" y="2" width="6" height="3" fill="C_HAIR" stroke="C_OUTLINE" />
    </g>
    <g id="axe">
      <rect x="-8" y="-1" width="16" height="2" fill="C_WOOD" />
      <rect x="6" y="-5" width="5" height="10" fill="C_METAL" stroke="C_OUTLINE" />
    </g>
    <g id="slash">
      <path d="M0,0 A14,14 0 0 1 9,9" fill="none" stroke="C_SLASH" stroke-width="3" stroke-linecap="round" />
      <path d="M2,0 A12,12 0 0 1 9,6" fill="none" stroke="C_SLASH_CORE" stroke-width="1" stroke-linecap="round" />
    </g>
  </defs>

  <g transform="translate(0,0)">
    <use href="#char" />
    <g transform="translate(18,13) rotate(-70)">
      <use href="#axe" />
    </g>
    <g transform="translate(12,6) rotate(-40)">
      <use href="#slash" />
    </g>
  </g>
  <g transform="translate(32,0)">
    <use href="#char" />
    <g transform="translate(18,13) rotate(-10)">
      <use href="#axe" />
    </g>
    <g transform="translate(16,8) rotate(0)">
      <use href="#slash" />
    </g>
  </g>
  <g transform="translate(64,0)">
    <use href="#char" />
    <g transform="translate(18,13) rotate(50)">
      <use href="#axe" />
    </g>
    <g transform="translate(20,10) rotate(35)">
      <use href="#slash" />
    </g>
  </g>
  <g transform="translate(96,0)">
    <use href="#char" />
    <g transform="translate(18,13) rotate(8)">
      <use href="#axe" />
    </g>
  </g>
</svg>